<?xml version="1.0" encoding="iso-8859-1"?>
<!-- Generator: Adobe Illustrator 19.0.0, SVG Export Plug-In . SVG Version: 6.00 Build 0)  -->
<svg version="1.1" id="Layer_1" xmlns="http://www.w3.org/2000/svg" xmlns:xlink="http://www.w3.org/1999/xlink" x="0px" y="0px"
	 viewBox="0 0 511.999 511.999" style="enable-background:new 0 0 511.999 511.999;" xml:space="preserve">
<path style="fill:#F4A321;" d="M335.42,102.427c0-60.119-35.559-94.366-79.421-94.366s-79.421,34.247-79.421,94.366
	s35.559,108.857,79.421,108.857S335.42,162.546,335.42,102.427z"/>
<path style="fill:#F9AC3D;" d="M311.712,27.882c-11.846-13.25-27.852-21.307-45.688-23.159c-6.146,21.331-9.447,43.865-9.447,67.174
	c0,42.226,10.816,81.921,29.816,116.484c27.731-15.201,47.34-51.99,47.34-94.86C333.734,66.697,326.119,43.998,311.712,27.882z"/>
<path style="fill:#FF3B3B;" d="M176.578,102.427c0-9.244,0.847-17.872,2.43-25.862c-7.793-2.796-16.168-4.248-24.897-4.248
	c-41.471,0-75.089,32.378-75.089,89.219c0,56.839,33.618,102.917,75.089,102.917c31.096,0,57.778-25.908,69.18-62.836
	C195.751,184.529,176.578,146.558,176.578,102.427z"/>
<path style="fill:#E52323;" d="M109.31,161.534c0-51.026,27.098-82.321,62.642-88.193c-4.055-0.676-8.218-1.026-12.469-1.026
	c-41.471,0-75.089,32.378-75.089,89.219c0,56.839,33.618,102.917,75.089,102.917c4.238,0,8.392-0.498,12.438-1.422
	C136.39,254.883,109.31,212.546,109.31,161.534z"/>
<path style="fill:#F27B22;" d="M209.016,102.427c0-54.308,29.02-87.497,66.964-93.406c-4.06-0.632-8.22-0.961-12.458-0.961
	c-43.862,0-79.421,34.247-79.421,94.366s35.559,108.857,79.421,108.857c4.238,0,8.398-0.461,12.458-1.337
	C238.036,201.752,209.016,156.736,209.016,102.427z"/>
<path style="fill:#4DB2F7;" d="M427.747,199.346c3.375-11.705,5.229-24.461,5.229-37.811c0-56.841-33.618-89.219-75.089-89.219
	c-8.729,0-17.105,1.452-24.897,4.248c1.583,7.991,2.43,16.618,2.43,25.862c0,44.131-19.173,82.102-46.713,99.19
	c11.402,36.927,38.084,62.836,69.18,62.836c24.552,0,46.353-16.151,60.053-41.125"/>
<path style="fill:#35A0DB;" d="M339.438,76.563c1.583,7.991,2.43,16.618,2.43,25.862c0,44.131-19.173,82.102-46.713,99.19
	c2.625,8.503,6.07,16.411,10.183,23.565c36.363-19.319,62.15-67.723,62.15-124.385c0-10.093-0.824-19.585-2.374-28.461
	c-0.26-0.002-0.517-0.018-0.779-0.018C355.606,72.315,347.23,73.768,339.438,76.563z"/>
<g>
	<path style="fill:#231F20;" d="M416.992,90.238c-14.978-16.756-35.969-25.983-59.104-25.983c-6.505,0-12.866,0.748-19.013,2.194
		c-4.171-15.169-11.121-28.401-20.708-39.124C302.412,9.704,280.335,0,255.999,0s-46.413,9.704-62.168,27.327
		c-9.586,10.723-16.538,23.955-20.708,39.124c-6.147-1.446-12.508-2.196-19.013-2.196c-23.135,0-44.126,9.227-59.104,25.983
		c-15.731,17.595-24.044,42.249-24.044,71.297c0,29.184,8.361,56.716,23.541,77.524c15.739,21.571,36.909,33.453,59.607,33.453
		c31.282,0,59.415-22.978,73.65-59.31c8.957,4.04,18.463,6.143,28.24,6.143s19.282-2.103,28.24-6.143
		c14.235,36.333,42.368,59.31,73.65,59.31c26.464,0,51.555-16.938,67.119-45.307c2.141-3.903,0.714-8.801-3.19-10.943
		c-3.901-2.139-8.8-0.714-10.943,3.19c-12.88,23.477-32.193,36.941-52.988,36.941c-25.147,0-48.069-20.011-59.569-51.482
		c7.416-5.471,14.268-12.425,20.349-20.76c14.299-19.598,22.836-44.869,24.493-71.983c0.062-0.984,0.116-1.971,0.159-2.961
		c0.026-0.602,0.051-1.204,0.07-1.808c0.053-1.653,0.089-3.31,0.089-4.973c0-1.808-0.034-3.603-0.097-5.386
		c-0.028-0.814-0.082-1.612-0.121-2.418c-0.048-0.944-0.089-1.89-0.156-2.825c-0.07-0.996-0.163-1.978-0.253-2.964
		c-0.066-0.723-0.126-1.449-0.202-2.165c-0.112-1.061-0.246-2.107-0.382-3.154c-0.055-0.426-0.096-0.859-0.155-1.282
		c5.077-1.234,10.359-1.857,15.774-1.857c40.093,0,67.029,32.617,67.029,81.159c0,12.299-1.653,24.27-4.913,35.577
		c-1.234,4.277,1.234,8.744,5.511,9.977c4.276,1.235,8.744-1.234,9.977-5.511c3.68-12.76,5.545-26.233,5.545-40.045
		C441.036,132.487,432.723,107.833,416.992,90.238z M154.11,256.391c-36.96,0-67.029-42.553-67.029-94.857
		c0-48.544,26.936-81.159,67.029-81.159c5.415,0,10.696,0.622,15.774,1.857c-0.059,0.423-0.1,0.856-0.155,1.282
		c-0.135,1.047-0.27,2.093-0.381,3.154c-0.076,0.717-0.136,1.443-0.202,2.165c-0.089,0.985-0.183,1.968-0.253,2.964
		c-0.066,0.935-0.107,1.882-0.156,2.825c-0.041,0.806-0.094,1.606-0.121,2.418c-0.062,1.783-0.097,3.579-0.097,5.386
		c0,1.664,0.037,3.321,0.089,4.973c0.018,0.604,0.044,1.205,0.07,1.808c0.043,0.99,0.098,1.976,0.159,2.961
		c1.657,27.114,10.194,52.384,24.493,71.983c6.081,8.335,12.933,15.289,20.35,20.76C202.178,236.38,179.257,256.391,154.11,256.391z
		 M228.216,195.27c-0.221-0.172-0.434-0.352-0.676-0.502c-25.163-15.612-41.724-49.94-42.838-88.223
		c-0.006-0.245-0.014-0.49-0.019-0.735c-0.027-1.125-0.045-2.251-0.045-3.383c0-1.458,0.03-2.898,0.075-4.329
		c0.01-0.29,0.019-0.58,0.03-0.87c1.867-48.737,30.023-81.108,71.257-81.108s69.39,32.37,71.255,81.108
		c0.011,0.289,0.02,0.579,0.03,0.87c0.045,1.43,0.075,2.87,0.075,4.329c0,1.131-0.017,2.258-0.045,3.383
		c-0.005,0.245-0.013,0.49-0.019,0.735c-1.113,38.283-17.675,72.611-42.838,88.223c-0.242,0.15-0.455,0.331-0.676,0.502
		c-8.543,5.121-17.934,7.955-27.784,7.955C246.148,203.224,236.759,200.389,228.216,195.27z"/>
	<path style="fill:#231F20;" d="M374.113,286.353h-26.538c-4.452,0-8.06,3.608-8.06,8.06c0,3.416,2.129,6.329,5.129,7.502
		l-80.584,101.996V251.11c0-0.59-0.068-1.164-0.188-1.718h5.398c4.452,0,8.06-3.608,8.06-8.06c0-4.452-3.608-8.06-8.06-8.06h-26.541
		c-4.452,0-8.06,3.608-8.06,8.06c0,4.452,3.608,8.06,8.06,8.06h5.398c-0.12,0.555-0.188,1.127-0.188,1.718v152.801l-80.586-101.996
		c3.001-1.172,5.13-4.086,5.13-7.502c0-4.452-3.608-8.06-8.06-8.06h-26.538c-4.452,0-8.06,3.608-8.06,8.06
		c0,4.452,3.608,8.06,8.06,8.06h9.366l82.681,104.649l-23.938-0.032c-15.251,0-29.08,8.43-36.086,21.998
		c-0.074,0.145-0.145,0.291-0.21,0.44l-0.796,1.8c-5.145,11.633-4.496,25.208,1.737,36.311c0.006,0.013,0.063,0.111,0.07,0.123
		c0.258,0.455,0.524,0.903,0.829,1.396c0.149,0.238,0.3,0.472,0.427,0.666c0.154,0.239,0.308,0.472,0.478,0.724
		c0.289,0.426,0.588,0.847,0.891,1.263c0.061,0.085,0.125,0.169,0.19,0.251c7.626,10.146,19.735,16.21,32.413,16.225l1.97,0.003
		c0.003,0,0.008,0,0.012,0c0.158,0,0.317-0.004,0.474-0.014c15.27-0.9,28.592-10.137,34.769-24.109l4.775-10.798v50.57
		c0,4.452,3.608,8.06,8.06,8.06c4.452,0,8.06-3.608,8.06-8.06v-50.57l4.775,10.798c6.177,13.971,19.501,23.209,34.77,24.109
		c0.157,0.01,0.316,0.014,0.474,0.014c0.004,0,0.009,0,0.012,0l1.967-0.003c12.682-0.015,24.79-6.078,32.416-16.225
		c0.062-0.078,0.121-0.157,0.181-0.239c0.304-0.416,0.603-0.836,0.93-1.319c0.152-0.227,0.301-0.452,0.421-0.638
		c0.161-0.246,0.318-0.491,0.485-0.759c0.275-0.445,0.542-0.893,0.798-1.348c0.024-0.041,0.048-0.083,0.07-0.121
		c6.235-11.105,6.884-24.68,1.738-36.31l-0.796-1.802c-0.066-0.149-0.135-0.294-0.21-0.44c-7.007-13.568-20.834-21.998-36.14-21.998
		l-23.884,0.032l82.68-104.649h9.367c4.452,0,8.06-3.608,8.06-8.06S378.565,286.353,374.113,286.353z M228.422,457.648
		c-3.695,8.354-11.629,13.902-20.748,14.522l-1.713-0.003c-7.783-0.01-14.924-3.597-19.59-9.843
		c-0.029-0.04-0.059-0.078-0.089-0.116c-0.167-0.232-0.332-0.463-0.483-0.687l-0.574-0.879c-0.172-0.279-0.34-0.56-0.463-0.776
		c-0.023-0.042-0.043-0.075-0.068-0.117c-3.817-6.799-4.2-14.782-1.051-21.902l0.692-1.564c4.26-8.071,12.537-13.073,21.692-13.073
		l36.654,0.049l0.608,0.769L228.422,457.648z M306.004,423.21c9.121,0,17.397,5.002,21.657,13.073l0.693,1.566
		c3.147,7.112,2.766,15.088-1.045,21.884c-0.015,0.026-0.03,0.054-0.046,0.08c-0.157,0.28-0.322,0.556-0.478,0.807
		c-0.088,0.143-0.178,0.283-0.299,0.469l-0.267,0.404c-0.162,0.24-0.33,0.475-0.5,0.709c-0.031,0.041-0.062,0.082-0.094,0.123
		c-4.666,6.247-11.805,9.833-19.591,9.843l-1.71,0.003c-9.118-0.62-17.055-6.166-20.749-14.522l-14.868-33.62l0.608-0.769
		L306.004,423.21z"/>
</g>
<g>
</g>
<g>
</g>
<g>
</g>
<g>
</g>
<g>
</g>
<g>
</g>
<g>
</g>
<g>
</g>
<g>
</g>
<g>
</g>
<g>
</g>
<g>
</g>
<g>
</g>
<g>
</g>
<g>
</g>
</svg>
