<?xml version="1.0" encoding="iso-8859-1"?>
<!-- Generator: Adobe Illustrator 19.0.0, SVG Export Plug-In . SVG Version: 6.00 Build 0)  -->
<svg version="1.1" id="Capa_1" xmlns="http://www.w3.org/2000/svg" xmlns:xlink="http://www.w3.org/1999/xlink" x="0px" y="0px"
	 viewBox="0 0 512 512" style="enable-background:new 0 0 512 512;" xml:space="preserve">
<path style="fill:#F25353;" d="M60.668,502l77.973-77.973l-31.112-31.112l-97.518,97.518l0,0c0,6.388,5.178,11.566,11.566,11.566
	L60.668,502L60.668,502z"/>
<rect x="89.58" y="400.343" transform="matrix(-0.7071 0.7071 -0.7071 -0.7071 485.0548 643.7674)" style="fill:#FFFFFF;" width="39.238" height="43.998"/>
<path style="fill:#FEB756;" d="M123.21,408.346c-46.861-46.861-46.861-122.838,0-169.699s122.838-46.861,169.699,0
	s46.861,122.838,0,169.699S170.071,455.207,123.21,408.346z"/>
<path style="fill:#FFFFFF;" d="M208.06,407.494c-46.39,0-83.997-37.607-83.997-83.997s37.607-83.997,83.997-83.997
	s83.997,37.607,83.997,83.997S254.45,407.494,208.06,407.494z"/>
<path d="M285.851,401.264l-0.408,0.405c-3.925,3.886-3.958,10.217-0.072,14.142c1.956,1.976,4.531,2.965,7.107,2.965
	c2.542,0,5.085-0.963,7.034-2.893l0.457-0.454c3.912-3.898,3.922-10.23,0.024-14.141
	C296.093,397.375,289.763,397.366,285.851,401.264z"/>
<path d="M299.98,231.577c-50.686-50.686-133.156-50.686-183.841,0c-24.553,24.553-38.075,57.198-38.075,91.919
	c0,23.788,6.349,46.598,18.239,66.502L2.94,483.363c-3.905,3.905-3.905,10.237,0,14.142c1.953,1.952,4.512,2.929,7.071,2.929
	s5.119-0.977,7.071-2.929l62.246-62.246l16.969,16.969l-42.699,42.699c-3.905,3.905-3.905,10.237,0,14.142
	c1.953,1.952,4.512,2.929,7.071,2.929c2.559,0,5.119-0.977,7.071-2.929l73.828-73.828c20.181,12.053,43.134,18.324,66.406,18.324
	c16.719,0,33.61-3.24,49.742-9.899c5.105-2.106,7.535-7.953,5.428-13.059c-2.107-5.105-7.953-7.539-13.059-5.428
	c-41.232,17.02-88.26,7.638-119.802-23.907c-42.887-42.887-42.887-112.671,0-155.557c42.887-42.888,112.67-42.887,155.557,0
	c29.923,29.923,40.049,75.019,25.797,114.891c-1.859,5.201,0.85,10.924,6.05,12.782c5.203,1.863,10.924-0.85,12.783-6.05
	c8.171-22.858,9.786-47.511,4.67-71.294C329.883,271.614,317.726,249.322,299.98,231.577z M110.438,438.088l-16.969-16.969
	l14.575-14.575c2.55,3.06,5.245,6.024,8.096,8.875c2.854,2.854,5.82,5.547,8.877,8.092L110.438,438.088z"/>
<path d="M134.063,323.496l0.002-0.536c0.04-5.522-4.404-10.032-9.927-10.072c-0.025,0-0.049,0-0.074,0
	c-5.489,0-9.958,4.43-9.999,9.928l-0.002,0.681c0,5.522,4.477,10,10,10S134.063,329.019,134.063,323.496z"/>
<path d="M208.06,417.493c51.83,0,93.996-42.166,93.996-93.996c0-51.829-42.166-93.996-93.996-93.996
	c-34.342,0-65.941,18.722-82.468,48.859c-2.656,4.843-0.883,10.921,3.96,13.576c4.841,2.654,10.921,0.883,13.575-3.96
	c13.014-23.733,37.895-38.476,64.932-38.476c40.802,0,73.997,33.195,73.997,73.997s-33.195,73.997-73.997,73.997
	c-26.954,0-51.798-14.676-64.835-38.302c-2.668-4.836-8.752-6.592-13.586-3.923c-4.835,2.668-6.592,8.751-3.924,13.586
	C142.27,398.856,173.823,417.493,208.06,417.493z"/>
<path d="M10.01,107.996c5.523,0,10-4.477,10-10V10c0-5.523-4.477-10-10-10s-10,4.477-10,10v87.997
	C0.01,103.519,4.487,107.996,10.01,107.996z"/>
<path d="M75.589,107.996c19.619,0,35.58-15.96,35.58-35.58V35.581C111.169,15.961,95.207,0,75.589,0S40.008,15.961,40.008,35.581
	v36.836C40.008,92.035,55.97,107.996,75.589,107.996z M60.008,35.581c0-8.592,6.99-15.581,15.581-15.581
	c8.591,0,15.58,6.99,15.58,15.581v36.836c0,8.591-6.99,15.58-15.58,15.58c-8.592,0-15.581-6.99-15.581-15.58V35.581z"/>
<path d="M141.167,107.996c5.523,0,10-4.477,10-10V10c0-5.523-4.477-10-10-10c-5.523,0-10,4.477-10,10v87.997
	C131.168,103.519,135.645,107.996,141.167,107.996z"/>
<path d="M206.746,107.996c19.619,0,35.581-15.96,35.581-35.58V35.581C242.326,15.961,226.365,0,206.746,0
	s-35.581,15.961-35.581,35.581v36.836C171.166,92.035,187.128,107.996,206.746,107.996z M191.165,35.581
	c0-8.592,6.99-15.581,15.581-15.581c8.592,0,15.581,6.99,15.581,15.581v36.836c0,8.591-6.99,15.58-15.581,15.58
	c-8.592,0-15.581-6.99-15.581-15.58V35.581z"/>
<path d="M272.325,107.996c5.523,0,10-4.477,10-10V10c0-5.523-4.477-10-10-10s-10,4.477-10,10v87.997
	C262.326,103.519,266.803,107.996,272.325,107.996z"/>
<path d="M501.99,0c-5.523,0-10,4.477-10,10v87.997c0,5.523,4.477,10,10,10s10-4.477,10-10V10C511.99,4.477,507.513,0,501.99,0z"/>
<path d="M337.904,107.996c19.619,0,35.58-15.96,35.58-35.58V35.581c0-19.619-15.96-35.581-35.58-35.581l0,0
	c-19.619,0-35.58,15.961-35.58,35.581v36.836C302.324,92.035,318.286,107.996,337.904,107.996z M322.323,35.581
	c0-8.592,6.99-15.581,15.581-15.581c8.591,0,15.58,6.99,15.58,15.581v36.836c0,8.591-6.99,15.58-15.581,15.58
	c-8.591,0-15.58-6.99-15.58-15.58V35.581z"/>
<path d="M429.063,107.996c19.619,0,35.581-15.96,35.581-35.58V35.581C464.643,15.961,448.681,0,429.063,0
	c-19.618,0-35.581,15.961-35.581,35.581v36.836C393.483,92.035,409.444,107.996,429.063,107.996z M413.482,35.581
	c0-8.592,6.99-15.581,15.581-15.581s15.581,6.99,15.581,15.581v36.836c0,8.591-6.99,15.58-15.581,15.58s-15.581-6.99-15.581-15.58
	V35.581z"/>
<path d="M91.169,145.837v64.169c0,5.523,4.477,10,10,10s10-4.477,10-10v-64.168c0-5.523-4.477-10-10-10
	S91.169,140.315,91.169,145.837z"/>
<path d="M35.591,243.833c19.619,0,35.58-15.961,35.58-35.581v-36.836c0-19.619-15.96-35.58-35.58-35.58S0.01,151.798,0.01,171.417
	v36.836C0.01,227.872,15.971,243.833,35.591,243.833z M20.009,171.417c0-8.591,6.99-15.58,15.581-15.58
	c8.591,0,15.58,6.99,15.58,15.58v36.836c0,8.592-6.99,15.581-15.58,15.581c-8.592,0-15.581-6.99-15.581-15.581
	C20.009,208.253,20.009,171.417,20.009,171.417z"/>
<path d="M141.167,187c5.523,0,10-4.477,10-10v-31.163c0-5.523-4.477-10-10-10c-5.523,0-10,4.477-10,10V177
	C131.168,182.523,135.645,187,141.167,187z"/>
<path d="M181.166,187c5.523,0,10-4.477,10-10v-5.583c0-8.591,6.99-15.58,15.581-15.58c8.592,0,15.581,6.99,15.581,15.58V177
	c0,5.523,4.477,10,10,10s10-4.477,10-10v-5.583c0-19.619-15.961-35.58-35.581-35.58s-35.581,15.96-35.581,35.58V177
	C171.166,182.523,175.643,187,181.166,187z"/>
<path d="M272.325,187c5.523,0,10-4.477,10-10v-31.163c0-5.523-4.477-10-10-10s-10,4.477-10,10V177
	C262.326,182.523,266.803,187,272.325,187z"/>
<path d="M312.324,220.005c5.523,0,10-4.477,10-10v-64.168c0-5.523-4.477-10-10-10s-10,4.477-10,10v64.168
	C302.324,215.529,306.801,220.005,312.324,220.005z"/>
<path d="M476.409,135.838c-19.619,0-35.58,15.96-35.58,35.58v36.836c0,19.619,15.96,35.581,35.58,35.581
	s35.581-15.961,35.581-35.581v-36.836C511.99,151.798,496.029,135.838,476.409,135.838z M491.991,208.253
	c0,8.592-6.99,15.581-15.581,15.581c-8.591,0-15.58-6.99-15.58-15.581v-36.836c0-8.591,6.99-15.58,15.58-15.58
	c8.592,0,15.581,6.99,15.581,15.58V208.253z"/>
<path d="M420.831,208.253v-36.836c0-19.619-15.961-35.58-35.581-35.58c-19.619,0-35.581,15.96-35.581,35.58v36.836
	c0,19.619,15.961,35.581,35.581,35.581C404.869,243.833,420.831,227.872,420.831,208.253z M400.831,208.253
	c0,8.592-6.99,15.581-15.581,15.581s-15.581-6.99-15.581-15.581v-36.836c0-8.591,6.99-15.58,15.581-15.58s15.581,6.99,15.581,15.58
	V208.253z"/>
<path d="M193.117,369.658v-87.997c0-5.522-4.477-10-10-10s-10,4.478-10,10v87.997c0,5.522,4.477,10,10,10
	S193.117,375.18,193.117,369.658z"/>
<path d="M239.675,291.661c5.523,0,10-4.478,10-10s-4.477-10-10-10c-19.619,0-35.581,15.961-35.581,35.58v36.837
	c0,19.618,15.961,35.58,35.581,35.58c5.523,0,10-4.478,10-10s-4.477-10-10-10c-8.592,0-15.581-6.989-15.581-15.58v-36.837
	C224.094,298.65,231.084,291.661,239.675,291.661z"/>
<path d="M363.484,271.661c-5.523,0-10,4.478-10,10v87.997c0,5.522,4.477,10,10,10c5.523,0,10-4.478,10-10v-87.997
	C373.483,276.139,369.007,271.661,363.484,271.661z"/>
<path d="M501.99,271.661c-5.523,0-10,4.478-10,10v87.997c0,5.522,4.477,10,10,10s10-4.478,10-10v-87.997
	C511.99,276.139,507.513,271.661,501.99,271.661z"/>
<path d="M429.063,271.661c-19.619,0-35.581,15.961-35.581,35.58v36.837c0,19.618,15.961,35.58,35.581,35.58
	c19.619,0,35.581-15.961,35.581-35.58v-36.837C464.643,287.623,448.681,271.661,429.063,271.661z M444.644,344.078
	c0,8.592-6.99,15.58-15.581,15.58s-15.581-6.989-15.581-15.58v-36.837c0-8.592,6.99-15.58,15.581-15.58s15.581,6.989,15.581,15.58
	V344.078z"/>
<g>
</g>
<g>
</g>
<g>
</g>
<g>
</g>
<g>
</g>
<g>
</g>
<g>
</g>
<g>
</g>
<g>
</g>
<g>
</g>
<g>
</g>
<g>
</g>
<g>
</g>
<g>
</g>
<g>
</g>
</svg>
