<?xml version="1.0"?>
<svg xmlns="http://www.w3.org/2000/svg" xmlns:xlink="http://www.w3.org/1999/xlink" version="1.1" id="Capa_1" x="0px" y="0px" viewBox="0 0 462.199 462.199" style="enable-background:new 0 0 462.199 462.199;" xml:space="preserve" width="512px" height="512px" class=""><g><g>
	<path d="M211.94,277.523c-3.852,1.524-5.737,5.883-4.213,9.734c1.525,3.852,5.884,5.736,9.734,4.213   c8.795-3.482,18.482-3.482,27.277,0c0.906,0.358,1.84,0.528,2.759,0.528c2.986,0,5.81-1.796,6.976-4.741   c1.524-3.851-0.361-8.209-4.213-9.734C237.905,272.631,224.295,272.631,211.94,277.523z" data-original="#000000" class="active-path" data-old_color="#0F66DF" fill="#E65100"/>
	<path d="M387.034,164.857l39.923-75.854c1.117-2.123,1.151-4.651,0.094-6.803c-1.059-2.152-3.083-3.668-5.445-4.079l-18.089-3.146   c-28.555-4.966-53.646-20.626-70.653-44.096C324.476,19.306,314.385,9.37,302.87,1.346c-2.661-1.855-6.217-1.788-8.808,0.169   c-18.255,13.789-40.026,21.077-62.962,21.077s-44.707-7.288-62.962-21.077c-2.591-1.956-6.145-2.024-8.808-0.169   c-11.518,8.025-21.608,17.961-29.993,29.532c-17.007,23.469-42.099,39.129-70.654,44.096L40.594,78.12   c-2.362,0.411-4.387,1.927-5.445,4.079c-1.058,2.152-1.023,4.681,0.094,6.803l39.924,75.854   c7.486,14.223,21.076,23.107,35.934,24.941v46.258c0,4.08-3.319,7.4-7.4,7.4c-4.08,0-7.399-3.32-7.399-7.4v-18.6   c0-11.028-8.972-20-20-20s-20,8.972-20,20v18.6c0,26.136,21.264,47.4,47.399,47.4c12.522,0,23.918-4.89,32.4-12.849v55.899   c0,2.039-0.817,3.94-2.303,5.354c-1.483,1.413-3.437,2.14-5.482,2.035c-3.868-0.188-7.015-3.696-7.015-7.819v-8.23   c0-5.408-2.126-10.474-5.987-14.264c-3.864-3.792-8.963-5.826-14.384-5.725c-10.823,0.188-19.629,9.344-19.629,20.409v8.24   c0,12.857,5.078,24.897,14.298,33.902c8.94,8.731,20.649,13.499,33.088,13.499c0.383,0,0.768-0.005,1.152-0.014   c12.043-0.288,23.022-5.256,31.262-13.147v20.886c0,4.123-3.148,7.632-7.02,7.823c-2.899,0.133-5.636-1.436-6.969-4.024   c-3.454-6.703-10.27-10.867-17.786-10.867c-7.028,0-13.424,3.583-17.109,9.586c-3.636,5.921-3.94,13.136-0.814,19.297   c8.063,15.897,24.592,26.016,42.334,26.016c0.367,0,0.735-0.004,1.104-0.013c12.042-0.285,23.021-5.252,31.261-13.142v25.888   c0,11.028,8.972,20,20,20s20-8.972,20-20v-25.951c1.601,0.415,3.271,0.658,5,0.658s3.399-0.244,5-0.658v25.951   c0,11.028,8.972,20,20,20c11.028,0,20-8.972,20-20v-25.888c8.239,7.89,19.219,12.857,31.261,13.142   c0.369,0.009,0.735,0.013,1.104,0.013c17.739-0.001,34.27-10.12,42.334-26.016c3.126-6.162,2.821-13.376-0.814-19.298   c-3.686-6.002-10.082-9.586-17.109-9.586c-7.517,0-14.332,4.164-17.786,10.867c-1.333,2.587-4.063,4.157-6.97,4.024   c-3.87-0.191-7.019-3.701-7.019-7.823v-20.572c8.848,8.308,20.268,12.846,32.387,12.846c0.383,0,0.768-0.005,1.152-0.014   c25.509-0.609,46.261-22.204,46.261-48.138v-7.91c0-5.411-2.126-10.479-5.987-14.269c-3.86-3.789-8.969-5.826-14.372-5.72   c-10.83,0.188-19.641,9.343-19.641,20.409v8.24c0,2.039-0.817,3.94-2.303,5.354c-1.483,1.413-3.438,2.138-5.481,2.035   c-3.868-0.188-7.016-3.696-7.016-7.819v-55.469c8.483,7.959,19.878,12.849,32.4,12.849c26.136,0,47.399-21.264,47.399-47.4v-18.6   c0-11.028-8.972-20-20-20s-20,8.972-20,20v18.6c0,4.08-3.319,7.4-7.399,7.4c-4.081,0-7.4-3.32-7.4-7.4v-46.247   C365.957,187.974,379.548,179.079,387.034,164.857z M83.65,148.77L53.315,91.133l7.938-1.38   c32.426-5.639,60.918-23.422,80.23-50.073c6.345-8.756,13.789-16.445,22.175-22.912c19.902,13.642,43.101,20.824,67.441,20.824   s47.539-7.182,67.441-20.824c8.385,6.466,15.829,14.155,22.175,22.912c19.312,26.65,47.805,44.433,80.229,50.072l7.938,1.381   L378.55,148.77c-47.235-18.064-96.805-27.224-147.45-27.224C180.454,121.546,130.885,130.707,83.65,148.77z M103.7,268.456   c-17.865,0-32.399-14.535-32.399-32.4v-18.6c0-2.757,2.243-5,5-5s5,2.243,5,5v18.6c0,12.352,10.048,22.4,22.399,22.4   s22.4-10.048,22.4-22.4v-46.809c3.042-0.609,6.072-1.524,9.048-2.762c0.316-0.132,0.635-0.252,0.952-0.383v49.954   C136.1,253.921,121.565,268.456,103.7,268.456z M261.1,318.406v62.911v60.882c0,2.757-2.243,5-5,5c-2.757,0-5-2.243-5-5V319.406   c0-4.142-3.357-7.5-7.5-7.5s-7.5,3.358-7.5,7.5v77.5c0,2.757-2.243,5-5,5s-5-2.243-5-5v-77.5c0-4.142-3.357-7.5-7.5-7.5   s-7.5,3.358-7.5,7.5v122.793c0,2.757-2.243,5-5,5s-5-2.243-5-5v-60.882v-62.911v-23.5c0-16.542,13.458-30,30-30s30,13.458,30,30   V318.406z M332.382,348.877c6.17,0.303,12.07-1.881,16.558-6.153c4.423-4.211,6.96-10.123,6.96-16.218v-8.24   c0-2.887,2.244-5.365,4.91-5.411c1.347-0.015,2.632,0.482,3.595,1.427c0.964,0.946,1.495,2.212,1.495,3.564v7.91   c0,17.858-14.184,32.726-31.616,33.142c-8.798,0.201-17.104-3.066-23.405-9.221c-6.306-6.159-9.778-14.388-9.778-23.171v-34.6   c0-23.029-11.332-44.587-30.313-57.668c-10.969-7.558-17.517-19.733-17.517-32.567v-0.266c0-4.7,3.695-8.543,8.33-8.804v9.138   c0,4.142,3.357,7.5,7.5,7.5s7.5-3.358,7.5-7.5v-9.164h12.823c4.143,0,7.5-3.358,7.5-7.5s-3.357-7.5-7.5-7.5h-27.324   c-13.14,0-23.829,10.69-23.829,23.829v0.266c0,17.769,8.974,34.561,24.005,44.919c14.919,10.28,23.825,27.221,23.825,45.316v89.728   c0,12.199,9.347,22.216,21.278,22.805c8.783,0.438,17.022-4.33,21.044-12.134c0.87-1.689,2.576-2.738,4.452-2.738   c2.556,0,3.877,1.703,4.327,2.435c0.425,0.693,1.299,2.535,0.22,4.663c-5.632,11.103-17.333,18.089-29.705,17.793   c-17.434-0.412-31.616-15.279-31.616-33.14v-86.411c0-24.813-20.187-45-45-45s-45,20.187-45,45v86.411   c0,17.861-14.183,32.728-31.616,33.14c-12.398,0.288-24.073-6.69-29.705-17.793c-1.079-2.127-0.206-3.97,0.22-4.663   c0.45-0.732,1.771-2.435,4.327-2.435c1.876,0,3.582,1.049,4.452,2.737c4.021,7.804,12.271,12.585,21.043,12.135   c11.932-0.589,21.279-10.606,21.279-22.805v-89.728c0-14.68,5.721-28.496,16.097-38.89c2.433-2.427,5.103-4.637,7.934-6.568   c14.902-10.164,23.8-27.002,23.8-45.043c0-13.139-10.689-23.829-23.829-23.829h-27.324c-4.143,0-7.5,3.358-7.5,7.5   s3.357,7.5,7.5,7.5H185.6v9.164c0,4.142,3.357,7.5,7.5,7.5s7.5-3.358,7.5-7.5v-9.138c4.635,0.261,8.33,4.104,8.33,8.804   c0,13.077-6.449,25.283-17.251,32.65c-3.597,2.453-6.987,5.259-10.088,8.352c-13.214,13.238-20.491,30.817-20.491,49.499v33.85   c0,17.858-14.185,32.726-31.617,33.142c-8.807,0.201-17.103-3.066-23.404-9.221c-6.306-6.159-9.778-14.388-9.778-23.171v-8.24   c0-2.887,2.239-5.365,4.899-5.411c1.373-0.025,2.64,0.483,3.605,1.433c0.964,0.946,1.495,2.21,1.495,3.559v8.23   c0,12.205,9.35,22.22,21.281,22.801c6.21,0.302,12.072-1.882,16.559-6.154c4.423-4.211,6.96-10.122,6.96-16.217v-86   c0-10.808,8.792-19.6,19.6-19.6c4.143,0,7.5-3.358,7.5-7.5s-3.357-7.5-7.5-7.5c-7.272,0-14.024,2.26-19.6,6.108v-31.529   c25.766-8.731,52.6-13.161,80-13.161c27.399,0,54.233,4.43,80,13.161v31.529c-5.576-3.848-12.328-6.108-19.6-6.108   c-4.143,0-7.5,3.358-7.5,7.5s3.357,7.5,7.5,7.5c10.808,0,19.6,8.792,19.6,19.6v85.57C311.1,338.28,320.45,348.295,332.382,348.877z    M358.501,258.456c12.352,0,22.399-10.048,22.399-22.4v-18.6c0-2.757,2.243-5,5-5s5,2.243,5,5v18.6   c0,17.865-14.534,32.4-32.399,32.4s-32.4-14.535-32.4-32.4v-49.954c0.317,0.13,0.636,0.251,0.952,0.383   c2.976,1.238,6.005,2.147,9.048,2.756v46.815C336.1,248.408,346.149,258.456,358.501,258.456z M332.813,172.635   c-32.4-13.477-66.622-20.311-101.713-20.311c-35.092,0-69.313,6.833-101.714,20.311c-13.986,5.819-29.664,1.23-38.353-10.62   c44.91-16.898,91.984-25.469,140.067-25.469c48.082,0,95.156,8.57,140.066,25.469C362.476,173.866,346.796,178.452,332.813,172.635   z" data-original="#000000" class="active-path" data-old_color="#0F66DF" fill="#E65100"/>
	<path d="M261.6,79.406c0-16.818-13.683-30.5-30.5-30.5s-30.5,13.682-30.5,30.5s13.683,30.5,30.5,30.5S261.6,96.224,261.6,79.406z    M215.6,79.406c0-8.547,6.953-15.5,15.5-15.5s15.5,6.953,15.5,15.5s-6.953,15.5-15.5,15.5S215.6,87.953,215.6,79.406z" data-original="#000000" class="active-path" data-old_color="#0F66DF" fill="#E65100"/>
</g></g> </svg>
