<?xml version="1.0"?>
<svg xmlns="http://www.w3.org/2000/svg" xmlns:xlink="http://www.w3.org/1999/xlink" version="1.1" id="Capa_1" x="0px" y="0px" viewBox="0 0 462.699 462.699" style="enable-background:new 0 0 462.699 462.699;" xml:space="preserve" width="512px" height="512px" class=""><g><g>
	<g id="XMLID_24_">
		<g>
			<path style="fill:#E5D665;" d="M136.353,186.349v49.96c0,17.86-14.54,32.4-32.4,32.4c-17.87,0-32.4-14.54-32.4-32.4v-18.6     c0-2.76,2.24-5,5-5c2.75,0,5,2.24,5,5v18.6c0,12.35,10.05,22.4,22.4,22.4s22.4-10.05,22.4-22.4v-46.81     c3.04-0.61,6.07-1.53,9.04-2.76C135.713,186.599,136.033,186.479,136.353,186.349z" data-original="#E5D665" class=""/>
			<path style="fill:#E5D665;" d="M391.153,217.709v18.6c0,17.86-14.54,32.4-32.4,32.4c-17.87,0-32.4-14.54-32.4-32.4v-49.96     c0.31,0.13,0.63,0.25,0.95,0.39c2.98,1.23,6,2.14,9.05,2.75v46.82c0,12.35,10.05,22.4,22.4,22.4s22.4-10.05,22.4-22.4v-18.6     c0-2.76,2.24-5,5-5C388.903,212.709,391.153,214.949,391.153,217.709z" data-original="#E5D665" class=""/>
			<path style="fill:#E5D665;" d="M261.353,381.569v60.88c0,2.76-2.25,5-5,5c-2.76,0-5-2.24-5-5v-122.79c0-4.14-3.36-7.5-7.5-7.5     c-4.15,0-7.5,3.36-7.5,7.5v77.5c0,2.75-2.25,5-5,5c-2.76,0-5-2.25-5-5v-77.5c0-4.14-3.36-7.5-7.5-7.5c-4.15,0-7.5,3.36-7.5,7.5     v122.79c0,2.76-2.25,5-5,5c-2.76,0-5-2.24-5-5v-60.88v-62.91v-23.5c0-16.54,13.46-30,30-30s30,13.46,30,30v23.5V381.569z      M254.723,287.509c1.52-3.85-0.36-8.21-4.21-9.74c-12.36-4.89-25.97-4.89-38.32,0c-3.85,1.53-5.74,5.89-4.22,9.74     c1.53,3.85,5.89,5.73,9.74,4.21c8.79-3.48,18.48-3.48,27.28,0c0.9,0.36,1.84,0.53,2.75,0.53     C250.733,292.249,253.553,290.449,254.723,287.509z" data-original="#E5D665" class=""/>
			<path style="fill:#E5D665;" d="M366.153,318.099v7.91c0,17.86-14.19,32.72-31.62,33.14c-8.8,0.2-17.1-3.07-23.4-9.22     c-6.31-6.16-9.78-14.39-9.78-23.17v-34.6c0-23.03-11.33-44.59-30.32-57.67c-10.97-7.56-17.51-19.73-17.51-32.57v-0.26     c0-4.7,3.69-8.55,8.33-8.81v9.14c0,4.14,3.35,7.5,7.5,7.5c4.14,0,7.5-3.36,7.5-7.5v-9.16h12.82c4.14,0,7.5-3.36,7.5-7.5     s-3.36-7.5-7.5-7.5h-27.32c-13.14,0-23.83,10.69-23.83,23.83v0.26c0,17.77,8.97,34.56,24,44.92     c14.92,10.28,23.83,27.22,23.83,45.32v89.73c0,12.19,9.34,22.21,21.28,22.8c8.78,0.44,17.02-4.33,21.04-12.13     c0.87-1.69,2.58-2.74,4.45-2.74c2.56,0,3.88,1.7,4.33,2.43c0.42,0.7,1.3,2.54,0.22,4.67c-5.63,11.1-17.33,18.08-29.71,17.79     c-17.43-0.41-31.61-15.28-31.61-33.14v-86.41c0-24.82-20.19-45-45-45c-24.82,0-45,20.18-45,45v86.41     c0,17.86-14.19,32.73-31.62,33.14c-12.4,0.29-24.07-6.69-29.7-17.79c-1.08-2.13-0.21-3.97,0.22-4.67     c0.45-0.73,1.77-2.43,4.32-2.43c1.88,0,3.58,1.05,4.45,2.73c4.03,7.81,12.28,12.59,21.05,12.14     c11.93-0.59,21.28-10.61,21.28-22.8v-89.73c0-14.68,5.72-28.5,16.09-38.89c2.44-2.43,5.11-4.64,7.94-6.57     c14.9-10.16,23.8-27,23.8-45.04c0-13.14-10.69-23.83-23.83-23.83h-27.33c-4.14,0-7.5,3.36-7.5,7.5s3.36,7.5,7.5,7.5h12.83v9.16     c0,4.14,3.35,7.5,7.5,7.5c4.14,0,7.5-3.36,7.5-7.5v-9.14c4.63,0.26,8.33,4.11,8.33,8.81c0,13.07-6.45,25.28-17.25,32.65     c-3.6,2.45-6.99,5.26-10.09,8.35c-13.22,13.24-20.49,30.82-20.49,49.5v33.85c0,17.86-14.19,32.72-31.62,33.14     c-8.81,0.2-17.1-3.07-23.4-9.22c-6.31-6.16-9.78-14.39-9.78-23.17v-8.24c0-2.89,2.24-5.37,4.9-5.41c1.37-0.03,2.64,0.48,3.6,1.43     c0.97,0.95,1.5,2.21,1.5,3.56v8.23c0,12.2,9.35,22.22,21.28,22.8c6.21,0.3,12.07-1.88,16.56-6.16     c4.42-4.21,6.96-10.12,6.96-16.21v-86c0-10.81,8.79-19.6,19.6-19.6c4.14,0,7.5-3.36,7.5-7.5s-3.36-7.5-7.5-7.5     c-7.28,0-14.03,2.26-19.6,6.11v-31.53c25.76-8.73,52.6-13.16,80-13.16s54.23,4.43,80,13.16v31.53     c-5.58-3.85-12.33-6.11-19.6-6.11c-4.15,0-7.5,3.36-7.5,7.5s3.35,7.5,7.5,7.5c10.81,0,19.6,8.79,19.6,19.6v85.57     c0,12.2,9.35,22.22,21.28,22.8c6.17,0.3,12.07-1.88,16.56-6.15c4.42-4.22,6.96-10.13,6.96-16.22v-8.24     c0-2.89,2.24-5.37,4.91-5.41c1.34-0.02,2.63,0.48,3.59,1.42C365.623,315.479,366.153,316.749,366.153,318.099z" data-original="#E5D665" class=""/>
			<path style="fill:#E5D665;" d="M231.353,64.159c8.54,0,15.5,6.95,15.5,15.5c0,8.54-6.96,15.5-15.5,15.5     c-8.55,0-15.5-6.96-15.5-15.5C215.853,71.109,222.803,64.159,231.353,64.159z" data-original="#E5D665" class=""/>
			<path style="fill:#FF8A80" d="M371.413,162.269c-8.69,11.85-24.37,16.43-38.35,10.62c-32.4-13.48-66.62-20.31-101.71-20.31     s-69.32,6.83-101.72,20.31c-13.98,5.82-29.66,1.23-38.35-10.62c44.91-16.9,91.98-25.47,140.07-25.47     C279.433,136.799,326.503,145.369,371.413,162.269z" data-original="#5B79CE" class="active-path" data-old_color="#5B79CE"/>
			<path style="fill:#FF8A80" d="M409.133,91.379l-30.33,57.64c-47.24-18.06-96.81-27.22-147.45-27.22     c-50.65,0-100.22,9.16-147.45,27.22l-30.34-57.64l7.94-1.38c32.43-5.64,60.92-23.42,80.23-50.07     c6.35-8.75,13.79-16.44,22.18-22.91c19.9,13.64,43.1,20.82,67.44,20.82s47.54-7.18,67.44-20.82     c8.38,6.47,15.83,14.15,22.17,22.91c19.31,26.65,47.81,44.43,80.23,50.07L409.133,91.379z M261.853,79.659     c0-16.82-13.69-30.5-30.5-30.5c-16.82,0-30.5,13.68-30.5,30.5s13.68,30.5,30.5,30.5     C248.163,110.159,261.853,96.479,261.853,79.659z" data-original="#5B79CE" class="active-path" data-old_color="#5B79CE"/>
			<path style="fill:#4D4D4D" d="M427.303,82.449c1.05,2.15,1.02,4.68-0.1,6.8l-39.92,75.86c-7.48,14.22-21.08,23.12-35.93,24.95     v46.25c0,4.08,3.32,7.4,7.4,7.4c4.08,0,7.4-3.32,7.4-7.4v-18.6c0-11.03,8.97-20,20-20s20,8.97,20,20v18.6     c0,26.13-21.27,47.4-47.4,47.4c-12.52,0-23.92-4.89-32.4-12.85v55.47c0,4.12,3.14,7.63,7.01,7.82c2.05,0.1,4-0.63,5.48-2.04     c1.49-1.41,2.31-3.31,2.31-5.35v-8.24c0-11.07,8.81-20.22,19.64-20.41c5.4-0.11,10.51,1.93,14.37,5.72     c3.86,3.79,5.99,8.86,5.99,14.27v7.91c0,25.93-20.76,47.53-46.26,48.14c-0.39,0-0.77,0.01-1.16,0.01     c-12.12,0-23.53-4.54-32.38-12.85v20.58c0,4.12,3.15,7.63,7.02,7.82c2.9,0.13,5.63-1.44,6.97-4.03     c3.45-6.7,10.26-10.86,17.78-10.86c0.2,0,0.4,0,0.6,0.01c6.79,0.2,12.93,3.74,16.51,9.57c3.64,5.93,3.94,13.14,0.82,19.3     c-8.07,15.9-24.6,26.02-42.34,26.02c-0.37,0-0.73-0.01-1.1-0.02c-12.04-0.28-23.02-5.25-31.26-13.14v25.89c0,11.03-8.97,20-20,20     c-11.03,0-20-8.97-20-20v-25.95c-1.6,0.41-3.27,0.66-5,0.66c-1.73,0-3.4-0.25-5-0.66v25.95c0,11.03-8.97,20-20,20s-20-8.97-20-20     v-25.89c-8.24,7.89-19.22,12.86-31.26,13.14c-0.37,0.01-0.74,0.02-1.11,0.02c-17.74,0-34.27-10.12-42.33-26.02     c-3.13-6.16-2.82-13.37,0.81-19.3c3.69-6,10.08-9.58,17.11-9.58c7.52,0,14.33,4.16,17.79,10.86c1.33,2.59,4.07,4.16,6.97,4.03     c3.87-0.19,7.02-3.7,7.02-7.82v-20.89c-8.24,7.89-19.22,12.86-31.26,13.15c-0.18,0-0.35,0-0.53,0c-0.21,0.01-0.42,0.01-0.63,0.01     c-12.44,0-24.14-4.77-33.08-13.5c-9.22-9.01-14.3-21.05-14.3-33.9v-8.24c0-11.07,8.8-20.22,19.63-20.41     c5.42-0.1,10.52,1.93,14.38,5.72c3.86,3.79,5.99,8.86,5.99,14.27v8.23c0,4.12,3.14,7.63,7.01,7.82c2.05,0.1,4-0.63,5.48-2.04     c1.49-1.41,2.31-3.31,2.31-5.35v-55.9c-8.49,7.96-19.88,12.85-32.4,12.85c-26.14,0-47.4-21.27-47.4-47.4v-18.6     c0-11.03,8.97-20,20-20s20,8.97,20,20v18.6c0,4.08,3.32,7.4,7.4,7.4s7.4-3.32,7.4-7.4v-46.26     c-14.86-1.84-28.45-10.72-35.94-24.94l-39.92-75.86c-1.12-2.12-1.15-4.65-0.09-6.8c1.05-2.15,3.08-3.67,5.44-4.08l18.09-3.14     c28.56-4.97,53.65-20.63,70.65-44.1c8.39-11.57,18.48-21.51,30-29.53c2.66-1.86,6.21-1.79,8.81,0.17     c18.25,13.79,40.02,21.07,62.96,21.07c22.93,0,44.7-7.28,62.96-21.07c2.59-1.96,6.15-2.03,8.81-0.17     c11.51,8.02,21.6,17.96,29.99,29.53c17.01,23.47,42.1,39.13,70.65,44.1l18.09,3.14C424.213,78.779,426.243,80.299,427.303,82.449     z M378.803,149.019l30.33-57.64l-7.94-1.38c-32.42-5.64-60.92-23.42-80.23-50.07c-6.34-8.76-13.79-16.44-22.17-22.91     c-19.9,13.64-43.1,20.82-67.44,20.82s-47.54-7.18-67.44-20.82c-8.39,6.47-15.83,14.16-22.18,22.91     c-19.31,26.65-47.8,44.43-80.23,50.07l-7.94,1.38l30.34,57.64c47.23-18.06,96.8-27.22,147.45-27.22     C281.993,121.799,331.563,130.959,378.803,149.019z M391.153,236.309v-18.6c0-2.76-2.25-5-5-5c-2.76,0-5,2.24-5,5v18.6     c0,12.35-10.05,22.4-22.4,22.4s-22.4-10.05-22.4-22.4v-46.82c-3.05-0.61-6.07-1.52-9.05-2.75c-0.32-0.14-0.64-0.26-0.95-0.39     v49.96c0,17.86,14.53,32.4,32.4,32.4C376.613,268.709,391.153,254.169,391.153,236.309z M366.153,326.009v-7.91     c0-1.35-0.53-2.62-1.5-3.57c-0.96-0.94-2.25-1.44-3.59-1.42c-2.67,0.04-4.91,2.52-4.91,5.41v8.24c0,6.09-2.54,12-6.96,16.22     c-4.49,4.27-10.39,6.45-16.56,6.15c-11.93-0.58-21.28-10.6-21.28-22.8v-85.57c0-10.81-8.79-19.6-19.6-19.6     c-4.15,0-7.5-3.36-7.5-7.5s3.35-7.5,7.5-7.5c7.27,0,14.02,2.26,19.6,6.11v-31.53c-25.77-8.73-52.6-13.16-80-13.16     s-54.24,4.43-80,13.16v31.53c5.57-3.85,12.32-6.11,19.6-6.11c4.14,0,7.5,3.36,7.5,7.5s-3.36,7.5-7.5,7.5     c-10.81,0-19.6,8.79-19.6,19.6v86c0,6.09-2.54,12-6.96,16.21c-4.49,4.28-10.35,6.46-16.56,6.16     c-11.93-0.58-21.28-10.6-21.28-22.8v-8.23c0-1.35-0.53-2.61-1.5-3.56c-0.96-0.95-2.23-1.46-3.6-1.43     c-2.66,0.04-4.9,2.52-4.9,5.41v8.24c0,8.78,3.47,17.01,9.78,23.17c6.3,6.15,14.59,9.42,23.4,9.22     c17.43-0.42,31.62-15.28,31.62-33.14v-33.85c0-18.68,7.27-36.26,20.49-49.5c3.1-3.09,6.49-5.9,10.09-8.35     c10.8-7.37,17.25-19.58,17.25-32.65c0-4.7-3.7-8.55-8.33-8.81v9.14c0,4.14-3.36,7.5-7.5,7.5c-4.15,0-7.5-3.36-7.5-7.5v-9.16     h-12.83c-4.14,0-7.5-3.36-7.5-7.5s3.36-7.5,7.5-7.5h27.33c13.14,0,23.83,10.69,23.83,23.83c0,18.04-8.9,34.88-23.8,45.04     c-2.83,1.93-5.5,4.14-7.94,6.57c-10.37,10.39-16.09,24.21-16.09,38.89v89.73c0,12.19-9.35,22.21-21.28,22.8     c-8.77,0.45-17.02-4.33-21.05-12.14c-0.87-1.68-2.57-2.73-4.45-2.73c-2.55,0-3.87,1.7-4.32,2.43c-0.43,0.7-1.3,2.54-0.22,4.67     c5.63,11.1,17.3,18.08,29.7,17.79c17.43-0.41,31.62-15.28,31.62-33.14v-86.41c0-24.82,20.18-45,45-45c24.81,0,45,20.18,45,45     v86.41c0,17.86,14.18,32.73,31.61,33.14c12.38,0.29,24.08-6.69,29.71-17.79c1.08-2.13,0.2-3.97-0.22-4.67     c-0.45-0.73-1.77-2.43-4.33-2.43c-1.87,0-3.58,1.05-4.45,2.74c-4.02,7.8-12.26,12.57-21.04,12.13     c-11.94-0.59-21.28-10.61-21.28-22.8v-89.73c0-18.1-8.91-35.04-23.83-45.32c-15.03-10.36-24-27.15-24-44.92v-0.26     c0-13.14,10.69-23.83,23.83-23.83h27.32c4.14,0,7.5,3.36,7.5,7.5s-3.36,7.5-7.5,7.5h-12.82v9.16c0,4.14-3.36,7.5-7.5,7.5     c-4.15,0-7.5-3.36-7.5-7.5v-9.14c-4.64,0.26-8.33,4.11-8.33,8.81v0.26c0,12.84,6.54,25.01,17.51,32.57     c18.99,13.08,30.32,34.64,30.32,57.67v34.6c0,8.78,3.47,17.01,9.78,23.17c6.3,6.15,14.6,9.42,23.4,9.22     C351.963,358.729,366.153,343.869,366.153,326.009z M333.063,172.889c13.98,5.81,29.66,1.23,38.35-10.62     c-44.91-16.9-91.98-25.47-140.06-25.47c-48.09,0-95.16,8.57-140.07,25.47c8.69,11.85,24.37,16.44,38.35,10.62     c32.4-13.48,66.63-20.31,101.72-20.31S300.663,159.409,333.063,172.889z M261.353,442.449v-60.88v-62.91v-23.5     c0-16.54-13.46-30-30-30s-30,13.46-30,30v23.5v62.91v60.88c0,2.76,2.24,5,5,5c2.75,0,5-2.24,5-5v-122.79c0-4.14,3.35-7.5,7.5-7.5     c4.14,0,7.5,3.36,7.5,7.5v77.5c0,2.75,2.24,5,5,5c2.75,0,5-2.25,5-5v-77.5c0-4.14,3.35-7.5,7.5-7.5c4.14,0,7.5,3.36,7.5,7.5     v122.79c0,2.76,2.24,5,5,5C259.103,447.449,261.353,445.209,261.353,442.449z M136.353,236.309v-49.96     c-0.32,0.13-0.64,0.25-0.96,0.39c-2.97,1.23-6,2.15-9.04,2.76v46.81c0,12.35-10.05,22.4-22.4,22.4s-22.4-10.05-22.4-22.4v-18.6     c0-2.76-2.25-5-5-5c-2.76,0-5,2.24-5,5v18.6c0,17.86,14.53,32.4,32.4,32.4C121.813,268.709,136.353,254.169,136.353,236.309z" data-original="#4D4D4D" class=""/>
			<path style="fill:#4D4D4D" d="M250.513,277.769c3.85,1.53,5.73,5.89,4.21,9.74c-1.17,2.94-3.99,4.74-6.98,4.74     c-0.91,0-1.85-0.17-2.75-0.53c-8.8-3.48-18.49-3.48-27.28,0c-3.85,1.52-8.21-0.36-9.74-4.21c-1.52-3.85,0.37-8.21,4.22-9.74     C224.543,272.879,238.153,272.879,250.513,277.769z" data-original="#4D4D4D" class=""/>
			<path style="fill:#4D4D4D" d="M231.353,49.159c16.81,0,30.5,13.68,30.5,30.5s-13.69,30.5-30.5,30.5     c-16.82,0-30.5-13.68-30.5-30.5S214.533,49.159,231.353,49.159z M246.853,79.659c0-8.55-6.96-15.5-15.5-15.5     c-8.55,0-15.5,6.95-15.5,15.5c0,8.54,6.95,15.5,15.5,15.5C239.893,95.159,246.853,88.199,246.853,79.659z" data-original="#4D4D4D" class=""/>
		</g>
		<g>
		</g>
	</g>
</g></g> </svg>
