<?xml version="1.0" encoding="iso-8859-1"?>
<!-- Generator: Adobe Illustrator 19.0.0, SVG Export Plug-In . SVG Version: 6.00 Build 0)  -->
<svg version="1.1" id="Layer_1" xmlns="http://www.w3.org/2000/svg" xmlns:xlink="http://www.w3.org/1999/xlink" x="0px" y="0px"
	 viewBox="0 0 512 512" style="enable-background:new 0 0 512 512;" xml:space="preserve">
<ellipse style="fill:#DCDDDE;" cx="256" cy="300" rx="208" ry="204"/>
<g>
	<path style="fill:#FFFFFF;" d="M367.056,306.432c-9.792-4.432-24.024-9.64-39.056-11.192v-49.584
		C349.632,256.2,363.464,280.472,367.056,306.432z"/>
	<path style="fill:#FFFFFF;" d="M144.944,306.432c3.592-25.96,17.424-50.224,39.056-60.784v49.568
		C168.968,296.776,154.728,301.992,144.944,306.432z"/>
	<path style="fill:#FFFFFF;" d="M200,304V168c0-17.28,2.248-33.288,5.792-48h100.432c3.536,14.704,5.776,30.704,5.776,48v136h-8h-96
		H200z"/>
	<polygon style="fill:#FFFFFF;" points="224,336 224,320 288,320 288,336 280,336 232,336 	"/>
</g>
<path style="fill:#DCDDDE;" d="M320,312V168c0-96-64-160-64-160v304H320z"/>
<circle style="fill:#53B7E8;" cx="256" cy="168" r="24"/>
<path style="fill:#FFD768;" d="M435.2,403.04c-8.56,14.32-19.04,27.76-31.36,40.08c-9.52,9.52-19.76,17.92-30.56,25.2
	c-70.32,47.76-163.44,47.6-233.6-0.48c-10.56-7.12-20.56-15.36-29.92-24.72C97.04,430.4,86.24,416.4,77.52,401.6
	C85.6,386.4,101.6,376,120,376c21.92,0,40.4,14.8,46.16,34.96C173.2,399.6,185.68,392,200,392c19.36,0,35.52,13.76,39.2,32h0.8v-80
	h32v80h0.8c3.68-18.24,19.84-32,39.2-32c14.32,0,26.8,7.6,33.84,18.96C351.52,390.8,370,376,392,376
	C410.96,376,427.36,387.04,435.2,403.04z"/>
<rect x="256" y="320" style="fill:#DCDDDE;" width="32" height="16"/>
<g>
	<path style="fill:#0C3847;" d="M405.656,146.344L400,140.688L388.688,152l5.656,5.656C434.68,198,456,245.832,456,296
		c0,32.224-7.616,63.248-21.912,91.112C423.6,375.104,408.48,368,392,368c-20.208,0-38.584,11.008-48.424,27.952
		C334.968,388.32,323.84,384,312,384c-12.136,0-23.424,4.592-32,12.248V352h24v-32h24v-8.624
		c22.336,2.808,43.544,15.28,43.864,15.48L384,334.152V320c0-39.048-20.544-79.112-56-91.792V168
		c0-98.184-63.632-159.64-66.344-162.344L256,0l-5.656,5.656C247.632,8.36,184,69.816,184,168v60.208
		c-35.456,12.68-56,52.744-56,91.792l0.008,14.152l12.128-7.296c0.328-0.2,21.536-12.688,43.864-15.488V320h24v32h24v44.248
		C223.424,388.592,212.136,384,200,384c-11.856,0-22.992,4.328-31.6,11.976C158.512,379.016,140.144,368,120,368
		c-16.36,0-31.536,7.176-42.056,19.176C63.624,359.296,56,328.24,56,295.992c0-50.16,21.32-97.992,61.656-138.336l5.656-5.656
		L112,140.688l-5.656,5.656C62.944,189.752,40,241.504,40,295.992c0,57.704,22.472,111.944,63.264,152.744
		C145.376,490.84,200.688,512,256,512s110.624-21.16,152.736-63.264C449.528,407.936,472,353.696,472,296
		C472,241.504,449.056,189.752,405.656,146.344z M367.056,306.432c-9.792-4.432-24.024-9.64-39.056-11.192v-49.584
		C349.632,256.2,363.464,280.472,367.056,306.432z M256.008,23.296c10.408,12.288,32.664,40.352,45.768,80.704h-91.512
		C223.376,63.712,245.616,35.608,256.008,23.296z M144.944,306.432c3.592-25.96,17.424-50.224,39.056-60.784v49.568
		C168.968,296.776,154.728,301.992,144.944,306.432z M200,304V168c0-17.28,2.248-33.288,5.792-48h100.432
		c3.536,14.704,5.776,30.704,5.776,48v136h-8h-96H200z M224,336v-16h64v16h-8h-48H224z M397.424,437.424
		c-77.984,77.976-204.864,77.976-282.84,0c-10.776-10.776-20.12-22.6-28.048-35.192C93.92,390.928,106.392,384,120,384
		c17.744,0,33.56,11.992,38.472,29.16l4.968,17.392l9.52-15.376c5.888-9.504,16-15.176,27.04-15.176
		c15.176,0,28.368,10.76,31.352,25.576l1.304,6.424H248v-80h16v80h15.344l1.296-6.424C283.632,410.76,296.824,400,312,400
		c11.04,0,21.152,5.672,27.04,15.168l9.576,15.456l4.928-17.496C358.368,395.976,374.184,384,392,384
		c13.704,0,26.112,6.872,33.488,18.2C417.56,414.8,408.208,426.632,397.424,437.424z"/>
	<path style="fill:#0C3847;" d="M256,136c-17.648,0-32,14.352-32,32s14.352,32,32,32s32-14.352,32-32S273.648,136,256,136z M256,184
		c-8.824,0-16-7.176-16-16s7.176-16,16-16s16,7.176,16,16S264.824,184,256,184z"/>
	<polygon style="fill:#0C3847;" points="352,64 368,64 368,48 384,48 384,32 368,32 368,16 352,16 352,32 336,32 336,48 352,48 	"/>
	<polygon style="fill:#0C3847;" points="96,104 112,104 112,88 128,88 128,72 112,72 112,56 96,56 96,72 80,72 80,88 96,88 	"/>
	<polygon style="fill:#0C3847;" points="424,128 440,128 440,112 456,112 456,96 440,96 440,80 424,80 424,96 408,96 408,112 
		424,112 	"/>
	<polygon style="fill:#0C3847;" points="376,184 376,192 368,192 368,208 376,208 376,216 392,216 392,208 400,208 400,192 392,192 
		392,184 	"/>
	<polygon style="fill:#0C3847;" points="144,176 160,176 160,168 168,168 168,152 160,152 160,144 144,144 144,152 136,152 136,168 
		144,168 	"/>
	<polygon style="fill:#0C3847;" points="144,32 160,32 160,24 168,24 168,8 160,8 160,0 144,0 144,8 136,8 136,24 144,24 	"/>
</g>
<path style="fill:#F37053;" d="M256.008,23.296c10.408,12.288,32.664,40.352,45.768,80.704h-91.512
	C223.376,63.712,245.616,35.608,256.008,23.296z"/>
<g>
</g>
<g>
</g>
<g>
</g>
<g>
</g>
<g>
</g>
<g>
</g>
<g>
</g>
<g>
</g>
<g>
</g>
<g>
</g>
<g>
</g>
<g>
</g>
<g>
</g>
<g>
</g>
<g>
</g>
</svg>
